<mxfile host="app.diagrams.net" modified="2023-03-28T13:09:24.066Z" agent="Mozilla/5.0 (Windows NT 10.0; Win64; x64) AppleWebKit/537.36 (KHTML, like Gecko) Chrome/111.0.0.0 Safari/537.36" etag="xA4toNUaGZbo1uGDQSW4" version="21.1.1" type="device">
  <diagram name="第 1 页" id="QViQIV2q948f9mW6T4o3">
    <mxGraphModel dx="1195" dy="630" grid="1" gridSize="10" guides="1" tooltips="1" connect="1" arrows="1" fold="1" page="1" pageScale="1" pageWidth="827" pageHeight="1169" math="0" shadow="0">
      <root>
        <mxCell id="0" />
        <mxCell id="1" parent="0" />
        <mxCell id="H5MX4IGfYsixepqa9dCb-3" style="edgeStyle=orthogonalEdgeStyle;rounded=0;orthogonalLoop=1;jettySize=auto;html=1;exitX=0.5;exitY=1;exitDx=0;exitDy=0;" edge="1" parent="1" source="H5MX4IGfYsixepqa9dCb-1" target="H5MX4IGfYsixepqa9dCb-2">
          <mxGeometry relative="1" as="geometry" />
        </mxCell>
        <mxCell id="H5MX4IGfYsixepqa9dCb-1" value="&lt;font style=&quot;font-size: 18px;&quot;&gt;Start&lt;/font&gt;" style="rounded=1;whiteSpace=wrap;html=1;" vertex="1" parent="1">
          <mxGeometry x="354" y="190" width="120" height="60" as="geometry" />
        </mxCell>
        <mxCell id="H5MX4IGfYsixepqa9dCb-5" style="edgeStyle=orthogonalEdgeStyle;rounded=0;orthogonalLoop=1;jettySize=auto;html=1;exitX=0.5;exitY=1;exitDx=0;exitDy=0;entryX=0.5;entryY=0;entryDx=0;entryDy=0;" edge="1" parent="1" source="H5MX4IGfYsixepqa9dCb-2" target="H5MX4IGfYsixepqa9dCb-4">
          <mxGeometry relative="1" as="geometry" />
        </mxCell>
        <mxCell id="H5MX4IGfYsixepqa9dCb-2" value="&lt;span style=&quot;font-size: 18px;&quot;&gt;選取檔案(CSV)&lt;/span&gt;" style="rounded=0;whiteSpace=wrap;html=1;" vertex="1" parent="1">
          <mxGeometry x="354" y="300" width="120" height="60" as="geometry" />
        </mxCell>
        <mxCell id="H5MX4IGfYsixepqa9dCb-7" style="edgeStyle=orthogonalEdgeStyle;rounded=0;orthogonalLoop=1;jettySize=auto;html=1;exitX=0.5;exitY=1;exitDx=0;exitDy=0;entryX=0.5;entryY=0;entryDx=0;entryDy=0;" edge="1" parent="1" source="H5MX4IGfYsixepqa9dCb-4" target="H5MX4IGfYsixepqa9dCb-6">
          <mxGeometry relative="1" as="geometry" />
        </mxCell>
        <mxCell id="H5MX4IGfYsixepqa9dCb-4" value="&lt;span style=&quot;font-size: 18px;&quot;&gt;Parsing 資料&lt;/span&gt;" style="rounded=0;whiteSpace=wrap;html=1;" vertex="1" parent="1">
          <mxGeometry x="354" y="410" width="120" height="60" as="geometry" />
        </mxCell>
        <mxCell id="H5MX4IGfYsixepqa9dCb-6" value="&lt;span style=&quot;font-size: 18px;&quot;&gt;產生圖表&lt;/span&gt;" style="rounded=0;whiteSpace=wrap;html=1;" vertex="1" parent="1">
          <mxGeometry x="354" y="524.5" width="120" height="60" as="geometry" />
        </mxCell>
      </root>
    </mxGraphModel>
  </diagram>
</mxfile>
